<?xml version="1.0" encoding="UTF-8" standalone="no"?>
<!-- Created with Inkscape (http://www.inkscape.org/) -->

<svg
   version="1.1"
   id="svg1"
   width="244"
   height="223"
   viewBox="0 0 244 223"
   sodipodi:docname="extension_point.svg"
   inkscape:version="1.4 (86a8ad7, 2024-10-11)"
   xmlns:inkscape="http://www.inkscape.org/namespaces/inkscape"
   xmlns:sodipodi="http://sodipodi.sourceforge.net/DTD/sodipodi-0.dtd"
   xmlns="http://www.w3.org/2000/svg"
   xmlns:svg="http://www.w3.org/2000/svg">
  <defs
     id="defs1" />
  <sodipodi:namedview
     id="namedview1"
     pagecolor="#ffffff"
     bordercolor="#111111"
     borderopacity="1"
     inkscape:showpageshadow="0"
     inkscape:pageopacity="0"
     inkscape:pagecheckerboard="1"
     inkscape:deskcolor="#d1d1d1"
     inkscape:zoom="2.2290436"
     inkscape:cx="115.74471"
     inkscape:cy="110.13692"
     inkscape:window-width="1920"
     inkscape:window-height="1009"
     inkscape:window-x="-8"
     inkscape:window-y="-8"
     inkscape:window-maximized="1"
     inkscape:current-layer="g1" />
  <g
     inkscape:groupmode="layer"
     inkscape:label="Image"
     id="g1">
    <path
       style="fill:#000000;stroke-width:1"
       d="m 117.82785,222.81661 -1.2609,-0.42733 -1.94303,-1.44049 -1.94303,-1.44048 -1.31694,-1.9125 -1.31693,-1.91249 -0.65455,-2.48058 -0.65454,-2.48058 0.18307,-3.3607 0.18306,-3.3607 1.03883,-2.2409 1.03882,-2.24089 1.54054,-1.68718 1.54054,-1.68716 2.2119,-1.16727 2.2119,-1.16727 3.61947,0.009 3.61946,0.009 2.5739,1.52813 2.5739,1.52813 1.56883,2.18662 1.56884,2.18662 0.64882,1.59308 0.64881,1.59308 0.0345,3.98766 0.0344,3.98765 -1.04891,2.43689 -1.04892,2.43691 -1.68055,1.8127 -1.68056,1.8127 -1.89541,1.04775 -1.89541,1.04776 -3.61947,0.11505 -3.61947,0.11504 z m 0.74912,-42.59247 0.10962,-8.04755 3.41839,0.0381 3.41838,0.038 0.10961,8.00947 0.10962,8.00949 h -3.63761 -3.63762 z m -110.1537897,0.6759 -1.6793402,-0.65558 -1.817,-1.7621 -1.817,-1.76208 -1.07413,-2.41877 -1.07413001,-2.41876 -0.20642,-2.83316 -0.20642,-2.83315 0.73490001,-2.59686 0.73491,-2.59687 2.27159,-2.51569 2.2716,-2.51569 2.3417202,-0.75 2.3416997,-0.75 2.84707,0.2049 2.84707,0.20491 1.68656,0.95247 1.68656,0.95247 1.4712,1.66524 1.47121,1.66524 0.78009,1.68009 0.7801,1.68009 0.40698,2.4255 0.40698,2.42551 -0.63731,2.76203 -0.63731,2.76204 -1.25508,2.03731 -1.25507,2.03732 -1.86161,1.39958 -1.86161,1.39958 -1.39252,0.43999 -1.39251,0.43999 -2.61672,-0.035 -2.61671,-0.035 z m 218.8987397,0.075 -1.55737,-0.6116 -1.45884,-1.28391 -1.45885,-1.28393 -1.2962,-2.10488 -1.2962,-2.10489 -0.41075,-1.62931 -0.41075,-1.62933 -0.003,-2.24571 -0.003,-2.24571 0.639,-2.37062 0.639,-2.37061 2.31603,-2.55163 2.31602,-2.55162 2.34172,-0.75 2.3417,-0.75 2.90511,0.20539 2.90509,0.20541 1.81248,1.17023 1.81247,1.17022 1.62672,2.03605 1.62672,2.03605 0.67451,2.23732 0.67451,2.23731 -0.18707,3.15511 -0.18706,3.15511 -0.87038,1.87074 -0.87036,1.87073 -1.22915,1.54233 -1.22914,1.54233 -2.45209,1.34996 -2.45209,1.34997 -2.85145,-0.0195 -2.85145,-0.0194 z m -195.92064,-9.20448 -0.2185,-0.62735 0.11719,-3.86882 0.1172,-3.86883 11.78905,0.0393 11.78905,0.0394 1.51855,-0.94029 1.51857,-0.94031 0.7681,-1.39821 0.76811,-1.39824 0.0905,-5.5384 0.0905,-5.53841 h 3.47057 3.47058 l -0.0581,6.42456 -0.0581,6.42455 -0.38109,1.57696 -0.38108,1.57698 -1.28316,2.13427 -1.28316,2.13428 -2.03985,1.42385 -2.03985,1.42385 -1.40757,0.59394 -1.40758,0.59393 -12.36574,0.18012 -12.36575,0.18012 z m 157.26171,0.24973 -1.20649,-0.18463 -2.07672,-0.64475 -2.07672,-0.64474 -2.01174,-1.75195 -2.01173,-1.75195 -1.3339,-2.98517 -1.3339,-2.98515 -0.007,-6.67073 -0.007,-6.67073 3.51893,-0.12802 3.51893,-0.12802 v 5.24024 5.24024 l 0.90486,1.94416 0.90487,1.94415 1.4013,0.80817 1.4013,0.80816 h 12.58843 12.58845 l -0.11512,4.31996 -0.1151,4.31996 -11.66273,0.0527 -11.66274,0.0528 z m -70.08582,-15.98218 0.10942,-8.30762 3.51892,-0.12802 3.51894,-0.12802 v 8.43563 8.43564 h -3.62835 -3.62834 z m -58.89122,-24.48027 -0.11735,-8.41887 3.51892,4.5e-4 3.51893,4.5e-4 v 8.41838 8.41838 h -3.40157 -3.40156 z m 58.79956,4.5e-4 v -8.41838 h 3.61947 3.61947 v 8.41838 8.41837 h -3.61947 -3.61947 z m 57.91149,0 v -8.41838 h 3.61947 3.61948 v 8.41838 8.41837 H 180.01647 176.397 Z M 59.76968,106.96784 v -8.639915 h 3.41838 3.41839 v 8.639915 8.63991 h -3.41839 -3.41838 z m 58.71583,0.66461 v -7.975305 l 1.30703,-0.0585 1.30703,-0.0585 2.21189,0.0139 2.2119,0.0139 0.10961,8.019895 0.10962,8.01989 h -3.62854 -3.62854 z m 57.91149,-0.66461 v -8.639915 h 3.61947 3.61948 v 8.639915 8.63991 H 180.01647 176.397 Z M 40.26477,89.076385 l -2.41298,-0.77554 -1.24038,-0.7198 -1.24038,-0.71982 -2.00825,-1.74892 -2.00826,-1.74891 -1.53721,-2.55148 -1.5372,-2.55149 -0.83227,-2.70459 -0.83227,-2.70459 -0.13777,-25.47668 -0.13777,-25.47669 0.43044,-3.53064 0.43044,-3.53065 1.13744,-2.67237 1.13746,-2.67237 2.11361,-2.5435996 2.11361,-2.5436 2.87871,-1.55536 2.8787,-1.55536 2.16625,-0.44254001 2.16624,-0.44254 h 78.09199 78.09199 l 2.38631,0.48021 2.38629,0.48019001 2.49274,1.3038 2.49273,1.3038 2.17764,2.19269 2.17764,2.19269 1.41853,3.0017096 1.41853,3.00171 0.44625,2.34794 0.44625,2.34794 v 25.81657 25.81657 l -0.43752,2.62904 -0.43753,2.62905 -1.4103,2.96616 -1.41031,2.96616 -2.16754,2.25851 -2.16756,2.25851 -3.12302,1.64296 -3.12301,1.64295 -80.43265,0.082 -80.43263,0.082 z m 76.59086,-13.55462 1.14533,-0.65252 0.81927,-1.89515 0.81926,-1.89514 3.49223,-8.63992 3.49223,-8.63992 5.7763,-14.2906 5.7763,-14.2906 0.8118,-1.75314 0.81181,-1.75313 v -1.36888 -1.36886 l -0.58553,-1.24747 -0.58554,-1.24747 -1.38553,-0.72436 -1.38551,-0.72436 h -0.86406 -0.86406 l -1.1268,0.64197 -1.1268,0.64196 -0.59947,1.01956 -0.59948,1.01956 -5.45993,13.51372 -5.45992,13.51372 -4.50837,11.07682 -4.50836,11.07682 -0.54252,1.9208 -0.54252,1.92083 0.57012,1.50329 0.57012,1.5033 1.33124,0.89419 1.33123,0.8942 1.12591,0.002 1.12593,0.002 z m -19.02152,-7.18531 0.876104,-0.63244 0.63789,-1.481 0.63789,-1.481 v -0.95196 -0.95195 l -0.57525,-1.19645 -0.57526,-1.19645 -7.089124,-7.48181 -7.08913,-7.48179 7.40508,-8.24728 7.405074,-8.24728 0.22274,-1.32911 0.22274,-1.3291 -0.51794,-1.36571 -0.51795,-1.36571 -1.108364,-0.96053 -1.10838,-0.96054 h -1.8469 -1.8469 l -9.7616,10.75458 -9.76159,10.75458 v 2.18369 2.18367 l 9.35029,10.37053 9.35029,10.37053 1.20649,0.6051 1.20649,0.6051 1.20059,-0.2676 1.20059,-0.26761 z m 62.78831,-9.55277 9.39986,-10.30144 0.60889,-1.27228 0.6089,-1.27227 -0.26478,-1.6077 -0.26479,-1.60769 -9.72434,-10.50442 -9.72436,-10.5044 -1.9412,-0.0186 -1.94122,-0.0186 -1.15496,1.27245 -1.15495,1.27244 -0.26594,1.16737 -0.26594,1.16736 0.24552,1.4419 0.24553,1.44188 7.23413,7.96079 7.23412,7.96078 -7.43539,8.23308 -7.43539,8.23308 v 2.12238 2.12237 l 1.36735,1.50645 1.36737,1.50645 h 1.93086 1.93088 z"
       id="path4" />
  </g>
</svg>
